<svg width="20" height="20" viewBox="0 0 20 20" fill="none" xmlns="http://www.w3.org/2000/svg">
<g id="soc-icons" clip-path="url(#clip0_45864_31)">
<g id="Group">
<g id="Group_2">
<path id="Vector" d="M19.5834 5.4224C19.4701 5.01843 19.2495 4.65269 18.945 4.36407C18.6319 4.06657 18.2482 3.85376 17.83 3.74573C16.265 3.33323 9.99503 3.33323 9.99503 3.33323C7.38113 3.30349 4.76788 3.4343 2.17003 3.7249C1.75185 3.84091 1.36883 4.05847 1.05503 4.35823C0.746693 4.6549 0.523359 5.02073 0.406693 5.42157C0.126437 6.93135 -0.00973061 8.46435 2.60381e-05 9.9999C-0.00997396 11.5341 0.125859 13.0666 0.406693 14.5782C0.520859 14.9774 0.743359 15.3416 1.05253 15.6357C1.36169 15.9299 1.74669 16.1424 2.17003 16.2549C3.75586 16.6666 9.99503 16.6666 9.99503 16.6666C12.6122 16.6963 15.2288 16.5655 17.83 16.2749C18.2482 16.1669 18.6319 15.9541 18.945 15.6566C19.2534 15.3624 19.4725 14.9966 19.5825 14.5982C19.8701 13.089 20.0099 11.5554 20 10.0191C20.0217 8.47624 19.882 6.93537 19.5834 5.42157V5.4224ZM8.00169 12.8532V7.1474L13.2184 10.0007L8.00169 12.8532Z" fill="white"/>
</g>
</g>
</g>
<defs>
<clipPath id="clip0_45864_31">
<rect width="20" height="20" fill="white"/>
</clipPath>
</defs>
</svg>
